<svg width="24" height="25" viewBox="0 0 24 25" fill="none" xmlns="http://www.w3.org/2000/svg">
<path d="M2 4.77L3.28 3.5L20 20.22L18.73 21.5L15.65 18.42C14.5 18.8 13.28 19 12 19C7 19 2.73 15.89 1 11.5C1.69 9.74 2.79 8.19 4.19 6.96L2 4.77ZM12 8.5C12.7956 8.5 13.5587 8.81607 14.1213 9.37868C14.6839 9.94129 15 10.7044 15 11.5C15.0005 11.8406 14.943 12.1787 14.83 12.5L11 8.67C11.3213 8.55698 11.6594 8.49949 12 8.5ZM12 4C17 4 21.27 7.11 23 11.5C22.1834 13.5729 20.7966 15.3723 19 16.69L17.58 15.26C18.9629 14.3034 20.0783 13.0091 20.82 11.5C20.0117 9.84987 18.7565 8.45963 17.1974 7.48735C15.6382 6.51508 13.8375 5.99976 12 6C10.91 6 9.84 6.18 8.84 6.5L7.3 4.97C8.74 4.35 10.33 4 12 4ZM3.18 11.5C3.98835 13.1501 5.24345 14.5404 6.80264 15.5126C8.36182 16.4849 10.1625 17.0002 12 17C12.69 17 13.37 16.93 14 16.79L11.72 14.5C11.0242 14.4254 10.3748 14.1149 9.87997 13.62C9.38512 13.1252 9.07458 12.4758 9 11.78L5.6 8.37C4.61 9.22 3.78 10.28 3.18 11.5Z" fill="#8E8E93"/>
</svg>
